<?xml version="1.0" encoding="UTF-8" standalone="no"?>
<!-- Created with Inkscape (http://www.inkscape.org/) -->

<svg
   width="200" 
   height="200"
   viewBox="0 0 800 800"
   version="1.1"
   id="svg1"
   sodipodi:docname="banklogo.svg"
   inkscape:version="1.4 (86a8ad7, 2024-10-11)"
   xml:space="preserve"
   xmlns:inkscape="http://www.inkscape.org/namespaces/inkscape"
   xmlns:sodipodi="http://sodipodi.sourceforge.net/DTD/sodipodi-0.dtd"
   xmlns="http://www.w3.org/2000/svg"
   xmlns:svg="http://www.w3.org/2000/svg"><sodipodi:namedview
     id="namedview1"
     pagecolor="#ffffff"
     bordercolor="#000000"
     borderopacity="0.25"
     inkscape:showpageshadow="2"
     inkscape:pageopacity="0.0"
     inkscape:pagecheckerboard="0"
     inkscape:deskcolor="#d1d1d1"
     inkscape:document-units="mm"
     inkscape:zoom="0.1767767"
     inkscape:cx="1722.5121"
     inkscape:cy="1009.7485"
     inkscape:window-width="1920"
     inkscape:window-height="991"
     inkscape:window-x="-9"
     inkscape:window-y="-9"
     inkscape:window-maximized="1"
     inkscape:current-layer="layer1" /><defs
     id="defs1" /><g
     inkscape:label="Layer 1"
     inkscape:groupmode="layer"
     id="layer1"><path
       id="path2"
       style="fill:none;stroke-width:0.163197"
       transform="matrix(0,-1,-1,0,0,0)"
       d="M -217.54483,-400 A 182.45517,182.45517 0 0 1 -400,-217.54483 182.45517,182.45517 0 0 1 -582.45517,-400 182.45517,182.45517 0 0 1 -400,-582.45517 182.45517,182.45517 0 0 1 -217.54483,-400 Z" /><path
       id="path1"
       style="fill:none;stroke-width:0.527219"
       transform="rotate(90)"
       d="M 524.30681,-400 A 125.36516,127.70943 0 0 1 398.94165,-272.29057 125.36516,127.70943 0 0 1 273.57649,-400 125.36516,127.70943 0 0 1 398.94165,-527.70943 125.36516,127.70943 0 0 1 524.30681,-400 Z" /><path
       d="m 292.49248,303.52644 0.80814,-0.6981 q 4.13105,4.28497 10.02337,4.28746 5.7917,0.0281 10.07832,-3.67493 3.30281,-2.85312 3.76718,-6.50613 0.46436,-3.65301 -1.78171,-6.25309 -2.36748,-2.74063 -5.6754,-2.52141 -3.20729,0.19366 -10.50804,3.24852 -5.87286,2.43494 -8.65522,3.1205 -3.25035,0.78306 -6.21498,-0.0919 -3.1004,-0.81903 -5.25541,-3.3137 -2.39784,-2.77576 -2.84239,-7.05479 0.7621,1.73454 1.64232,2.75349 2.36748,2.74063 5.45831,3.69063 3.18667,0.98992 6.09522,0.37942 2.93891,-0.57537 8.7862,-3.11094 7.58662,-3.36317 12.16917,-3.45636 4.41644,-0.0724 7.54273,3.54662 3.06559,3.54877 2.88413,8.73672 -0.18625,5.25343 -5.5621,9.89734 -2.17845,1.88185 -6.74154,4.41247 -3.98012,2.2111 -5.69702,3.63287 l -0.48877,-0.0686 q -0.48085,-0.62767 -1.30037,-1.57635 -0.97127,-1.12436 -3.21569,-3.29637 -2.20929,-2.20237 -3.21092,-3.36187 -1.30515,-1.51085 -2.10553,-2.72149 z m 12.11892,-36.1157 -0.73786,0.6374 q -3.55601,-4.04545 -8.45314,-3.25102 -4.7965,0.76886 -9.2588,4.62361 -3.54877,3.06559 -4.52747,6.54935 -1.01384,3.51411 0.8073,5.62228 1.94255,2.24872 4.89267,1.97044 3.11145,-0.23357 10.36749,-3.1271 6.74813,-2.70019 9.79245,-3.36662 3.27591,-0.68243 6.72454,0.32663 3.50933,1.07933 5.99822,3.9605 3.79404,4.39203 2.71652,9.67912 -0.23193,-2.68338 -2.81188,-5.66996 -2.42818,-2.8109 -5.61007,-3.86631 -3.28251,-1.02985 -6.40831,-0.59981 -3.19129,0.42526 -9.09929,2.89056 -8.89475,3.69555 -12.39913,3.90042 -3.53473,0.16974 -6.53961,-3.30875 -3.46017,-4.00553 -2.20054,-9.0818 1.32034,-5.006 7.25837,-10.13554 4.04067,-3.49052 11.08738,-7.12356 l 0.21246,0.24595 1.22367,1.27448 q 0.91057,1.05408 2.25564,2.4691 1.65337,1.70089 2.83711,3.07121 0.78917,0.91354 1.87228,2.30942 z m 35.72106,8.67848 -9.51765,-20.20364 3.15026,-1.48404 9.81446,20.83369 q 3.60127,7.64462 8.9357,5.13164 1.72214,-0.81127 2.49763,-1.9978 l 0.43532,0.92408 q -1.31111,2.77329 -3.87331,3.98031 -2.3522,1.10809 -4.62109,0.43188 -2.41469,-0.65884 -3.66579,-2.22511 -1.3351,-1.5267 -3.15553,-5.39101 z m -6.25886,2.07594 -9.18127,-19.48958 3.15025,-1.48404 9.87383,20.9597 q 2.17659,4.62037 4.03066,6.15921 1.85165,1.64264 4.32535,1.55514 l -1.30211,0.6134 q -3.40784,0.0656 -5.94647,-1.50999 -2.47684,-1.55342 -4.95024,-6.80384 z m -14.13228,-34.24842 8.5146,2.71245 -1.0268,3.04996 -8.45281,-2.69024 z m 1.92759,-6.04055 8.47261,2.73224 -0.9848,3.03017 -8.49482,-2.67045 z m 59.83455,34.62711 0.45035,0.89543 q -1.72823,2.17411 -4.34891,2.79396 -3.7051,0.87635 -6.14056,-1.55346 -2.42479,-2.38462 -4.01717,-9.11705 l -10.2062,-43.15085 q 2.68968,-0.73159 3.78722,-1.13432 1.33047,7.84404 2.132,11.23285 l 7.16037,30.27337 q 1.31452,5.55765 2.06655,7.52681 0.76271,2.01435 2.46265,2.9482 1.67614,1.03491 4.11609,0.45781 1.31034,-0.30993 2.53761,-1.17275 z m -27.24464,-49.42662 10.19551,43.10566 q 1.45345,6.14505 2.58007,7.88247 1.13731,1.78261 3.07724,3.32767 -2.65612,-0.13515 -4.38569,-1.39598 -1.7082,-1.17047 -2.8037,-3.58322 -0.9862,-2.15233 -2.35415,-7.9359 l -7.16037,-30.27337 q -0.97253,-4.11176 -1.63081,-5.48284 -0.7462,-1.54113 -2.3106,-2.50705 -1.56439,-0.96591 -3.68318,-0.84647 l -0.18168,-0.76813 q 1.40071,-0.3313 4.35662,-0.74417 1.47795,-0.20643 4.30074,-0.77867 z m 38.10038,16.69137 18.37514,32.08411 -1.87328,2.63563 -0.32447,-0.0188 -15.17943,-26.22521 q -2.62453,-4.47711 -4.38481,-6.20674 -1.80395,-1.77866 -4.23118,-2.43066 l 0.0456,-0.78801 q 4.88932,0.70142 7.57245,0.94965 z m 33.48091,10.54089 -13.0827,18.73022 -16.87536,-29.06732 q 5.14522,0.29765 10.64441,0.10418 l -0.0456,0.788 q -3.49182,0.8677 -3.62053,3.09266 -0.0751,1.29789 2.16713,5.14828 l 7.77551,13.51867 7.60728,-10.90799 q 2.38508,-3.44317 2.51111,-5.62178 0.16089,-2.7812 -4.43499,-4.53533 l 0.0456,-0.78801 q 0.13906,0.008 2.53602,0.37925 2.62337,0.47732 4.15303,0.56581 1.85413,0.10726 9.67367,0.002 l -0.0456,0.788 q -2.40424,0.55855 -4.2622,2.12537 -1.85796,1.56682 -4.74679,5.67848 z m 15.70428,25.58224 -0.2819,0.18065 q -4.80091,-6.51334 -1.33547,-14.42368 1.34146,-3.06207 3.73803,-5.40844 2.39658,-2.34638 7.32099,-3.63603 l 0.11948,0.3058 q -4.71013,3.46185 -7.56073,9.96874 -2.96239,6.76207 -2.0004,13.01296 z m 35.70825,-0.62838 -3.78506,-1.6582 q 3.17827,-7.83338 0.93435,-13.12514 5.59882,5.84907 2.85071,14.78334 z m -24.60633,-14.5309 15.14023,6.63277 q 1.12881,-3.15522 0.38596,-6.31935 -0.8279,-3.20139 -4.31526,-4.72916 -3.10459,-1.36009 -6.18123,-0.1227 -3.07664,1.2374 -5.0297,4.53844 z m 18.01438,11.64303 -19.73333,-8.64496 q -1.01663,2.08918 -1.22157,2.55699 -2.42208,5.52874 -0.87442,10.21133 1.56629,4.64007 6.41457,6.76405 3.9977,1.75135 8.18008,0.99837 4.18238,-0.75298 7.65594,-3.59067 l 1.82874,0.80115 q -8.81269,9.47096 -19.7851,4.66407 -6.59196,-2.88786 -8.15218,-9.046 -1.57886,-6.11561 1.47669,-13.09032 2.94376,-6.71954 8.21729,-9.73181 5.21238,-2.98837 10.48594,-0.67808 4.25287,1.86314 6.0877,6.46878 1.81093,4.54448 -0.58035,12.3171 z m 31.59953,4.18444 -22.09462,24.6532 q -5.14475,-4.48612 -7.25262,-5.75174 l 0.55778,-0.62238 q 3.69938,1.50732 5.79615,0.76783 2.19332,-0.77766 5.69499,-4.68483 l 7.99497,-8.92079 q 3.31574,-3.69971 3.77305,-6.15791 0.45372,-2.52376 -1.5364,-5.24258 l 0.5268,-0.5878 q 0.88595,1.16809 6.5399,6.547 z m -19.6051,26.88435 22.09462,-24.65319 q 1.17202,0.98803 3.10701,2.09871 -1.416,1.16256 -4.42904,4.38537 7.78298,-1.37951 9.33893,0.015 0.899,0.8057 2.42071,3.9776 1.30348,2.78927 2.06417,3.47102 1.00272,0.89866 3.518,0.59659 0.1967,-0.0108 0.26226,-0.0144 0.0966,-0.0382 0.62108,-0.0669 l 0.45439,1.09307 q -5.00641,2.24685 -7.63424,-0.10825 -0.899,-0.8057 -2.46964,-4.27085 -0.63804,-1.44471 -1.19127,-1.94052 -1.65968,-1.48743 -5.44809,-1.01704 1.1469,0.52908 1.76928,1.08687 0.96815,0.86767 2.5078,4.36739 1.15441,2.46863 1.98425,3.21235 0.55323,0.49581 1.45092,0.67684 -3.64652,0.65991 -5.23705,-0.76555 -0.72611,-0.65075 -1.67306,-2.93345 -1.3322,-3.3138 -2.26577,-4.15048 -0.93357,-0.83668 -2.7658,-0.67064 l -9.42043,10.51132 q -3.1608,3.52683 -3.47621,6.17454 -0.31542,2.64772 1.8988,5.25563 l -0.55779,0.62238 q -3.67362,-4.04054 -6.92383,-6.95344 z"
       id="text1"
       style="font-size:95.0903px;font-family:'Colonna MT';-inkscape-font-specification:'Colonna MT, Normal';text-align:center;letter-spacing:0.140409px;text-anchor:middle;fill:#999999;stroke-width:0.933514"
       transform="translate(4.2661205)"
       aria-label="Silver" /><path
       d="m 306.17693,555.61445 q 7.37338,-1.29658 12.40811,-8.09017 5.4015,-7.2885 4.41665,-14.98845 6.24759,9.43944 0.0792,17.76272 -3.03417,4.09416 -7.786,5.52134 -4.75183,1.42718 -9.11797,-0.20544 z m 16.62237,-27.13186 q 5.41184,-1.56536 9.07952,-6.51434 2.9008,-3.91419 3.67176,-8.15219 0.79265,-4.36133 -0.4767,-6.97487 3.75388,4.24572 4.00446,8.89228 0.21724,4.69155 -2.41682,8.24582 -2.33398,3.14935 -6.38081,4.4717 -3.98015,1.23237 -7.48141,0.0316 z m -8.73244,-38.534 -35.14308,47.42019 q -4.01422,-2.76583 -9.84815,-6.46205 l 0.60016,-0.80983 q 6.9258,2.69317 14.79465,-7.92463 l 17.37148,-23.44015 q 6.93526,-9.35807 2.57684,-15.51553 l 0.60016,-0.80983 q 4.34561,3.91753 9.04794,7.54183 z m -6.65409,33.05563 -4.49907,-3.33426 -6.00166,8.09833 q -6.30175,8.50324 -6.12426,12.11982 0.67443,2.38174 3.82378,4.71572 5.26391,3.90108 9.78074,2.50884 4.42685,-1.45892 7.46102,-5.55308 2.43401,-3.28432 2.77311,-6.65745 0.32746,-3.45147 -1.1319,-5.99672 -1.62768,-2.60029 -6.08176,-5.9012 z m 4.57011,-15.57173 -6.70185,9.04313 3.46428,2.56738 q 4.31911,3.20089 8.39244,2.59519 4.07333,-0.60571 7.3409,-5.0148 3.3676,-4.54406 2.61528,-8.79575 -0.78567,-4.2067 -4.29494,-6.80742 -1.9346,-1.43373 -3.80455,-1.35583 -2.61033,1.82933 -7.01156,7.7681 z m -29.72979,32.40365 35.14308,-47.4202 8.09352,5.16169 q 5.71382,4.23451 6.45406,10.28947 0.6619,6.0666 -3.43923,11.60046 -5.13476,6.92857 -13.43081,5.52003 8.08421,9.40654 0.34873,19.84438 -3.90108,5.26391 -10.02957,6.85577 -6.17348,1.55852 -13.37199,-3.77629 -2.65445,-1.96722 -5.52541,-4.58279 -2.62271,-2.29219 -4.24238,-3.49252 z m 64.84176,13.88911 q -4.50771,3.42024 -5.80248,8.52242 -1.52893,6.02493 1.72684,10.95309 -3.11816,-1.60013 -5.02187,-4.7986 -2.02604,-3.17175 -1.00675,-7.18836 1.77686,-7.00194 10.10426,-7.48855 z m 29.70827,29.3198 -10.2562,-3.29598 7.14878,-28.17058 q 1.08816,-4.28801 0.78362,-6.50293 -0.39931,-2.29674 -2.30711,-4.34078 4.48807,2.12109 5.55087,4.99062 1.04903,2.92381 -0.5901,9.38296 l -4.25621,16.77208 q -1.08815,4.28801 -0.36235,6.43651 0.67153,2.13473 4.53663,3.75108 z m -16.71194,-9.72948 3.59505,-14.16671 q -1.7361,-0.67166 -2.98451,-0.98847 -4.288,-1.08815 -7.33742,0.91116 -3.06319,2.05358 -3.93096,5.47313 -0.78513,3.09388 0.67221,5.77467 1.48408,2.80312 4.41512,3.54692 2.60537,0.66116 5.57051,-0.5507 z m 4.35262,-17.15203 1.46006,-5.75353 q 0.99174,-3.90806 -0.0176,-6.53293 -1.07739,-2.58437 -5.74535,-3.76894 -7.27332,-1.84574 -13.65814,2.36918 l -1.02639,-1.64704 q 2.87608,-2.90991 7.78311,-4.0334 4.87947,-1.01493 9.54743,0.16964 10.1501,2.57577 7.34017,13.6486 l -7.16255,28.22486 q -2.52437,-0.52506 -4.34474,-0.40927 l 0.89286,-2.83544 q -3.44396,2.18806 -7.18918,1.23764 -4.28801,-1.08816 -6.31077,-5.18346 -2.07705,-4.10907 -1.00267,-8.3428 1.23968,-4.88507 5.70361,-7.44981 4.35537,-2.59228 10.16318,-1.11845 1.84547,0.46832 3.56697,1.42515 z m 79.19725,21.93081 -3.83333,-27.05733 q -0.79337,-5.59998 -1.92309,-7.98505 -1.04285,-2.17114 -4.12193,-3.54478 3.80956,-0.25693 6.41274,1.74972 2.61103,2.06209 3.80502,10.48978 l 1.83025,12.91877 q 0.67555,4.7683 1.51279,6.68578 0.80536,2.09167 2.855,3.38492 2.00205,1.35655 4.50448,1.45448 l 0.1414,0.99802 q -1.85326,0.0929 -6.16183,0.4205 -4.24527,0.37522 -5.0215,0.48519 z m -40.86398,-34.53665 5.60073,39.53254 q -5.67159,1.0863 -9.83045,2.07142 l -0.14139,-0.99802 q 2.37721,-1.18516 3.73422,-3.58319 1.35701,-2.39802 0.19444,-10.60393 l -1.93237,-13.63956 q -0.78552,-5.54453 -2.43781,-8.02524 -1.68417,-2.30652 -5.89664,-2.89744 l -0.13354,-0.94257 q 2.65307,-0.0365 10.84281,-0.91401 z m 9.53735,38.97482 -5.60073,-39.53254 q 2.92289,-0.52721 4.39635,-0.90564 l 0.0282,2.99359 q 6.43579,-4.47495 12.36844,-5.31545 3.82573,-0.54201 6.80963,0.95823 2.93631,1.56354 3.94728,3.90887 1.01883,2.40078 1.8122,8.00076 l 3.68407,26.00387 q -2.25755,0.43295 -4.3885,0.96109 -0.59377,-6.98566 -0.98653,-9.75793 l -2.5058,-17.68706 q -0.76981,-5.43365 -2.63648,-7.43152 -1.92998,-2.04546 -6.08838,-1.45632 -4.43563,0.62842 -11.5132,5.36397 l 3.19705,22.56625 q 1.25683,8.87126 8.01932,9.49682 l 0.1414,0.99802 q -6.74771,0.27727 -10.68433,0.83499 z m 109.04529,-43.64844 0.53496,0.85431 q -6.41973,3.3593 -8.61494,4.6018 l -34.05583,-8.80326 2.93184,-7.45206 q 1.71165,-4.44152 0.28507,-6.71967 -1.54546,-2.468 -4.79149,-1.42642 l -0.50525,-0.80684 q 2.34958,-1.20701 3.86258,-1.95624 l 5.71934,-3.31715 q 1.75607,-1.09965 5.18482,-3.64317 3.5534,-2.55549 4.1704,-2.94186 l 0.50524,0.80685 q -4.46668,3.52383 -9.15718,15.97542 l -3.29288,8.66924 21.54616,5.60271 q 10.53267,2.78673 15.67716,0.55634 z m -35.41779,22.57502 -35.93188,-57.38093 q 1.56623,-0.98077 3.88562,-2.76354 4.22742,8.12259 7.05085,12.63143 l 15.51401,24.77489 32.35783,8.41295 -1.61369,1.01049 q -1.56623,0.98077 -2.90667,2.21659 -2.93337,-1.20246 -6.9588,-2.24964 l -17.93636,-4.6917 4.22029,6.73953 q 2.40735,3.84438 5.1034,5.19544 2.6486,1.38078 6.29207,0.0243 l 0.53496,0.85431 q -5.89766,3.03239 -9.61163,5.22593 z m -48.55133,-50.20544 9.3446,-5.12479 35.93189,57.38093 q -3.79692,2.37763 -8.66104,6.2164 l -0.53497,-0.8543 q 2.78734,-2.93473 2.4404,-6.0211 -0.34694,-3.08636 -3.85394,-8.68681 l -22.14165,-35.35881 q -2.43707,-3.89184 -3.70261,-5.27975 -1.36046,-1.32846 -3.59873,-1.84296 -2.28574,-0.48477 -4.71871,0.37803 z"
       id="text2"
       style="font-size:114.686px;font-family:'Colonna MT';-inkscape-font-specification:'Colonna MT, Normal';text-align:center;letter-spacing:15.47px;text-anchor:middle;fill:#00aa00;stroke-width:0.933514"
       transform="matrix(0.86772568,0,0,0.86772568,56.82738,77.417443)"
       aria-label="Bank" /><path
       id="path21"
       style="fill:none;stroke:#000000;stroke-width:6"
       d="M 212.93501 364.92329 A 190.32521 190.32521 0 0 1 400 209.67479 A 190.32521 190.32521 0 0 1 587.07908 364.9985 " /><path
       id="path19"
       style="fill:none;stroke:#000000;stroke-width:6"
       d="M 579.56369 463.09172 A 190.32521 190.32521 0 0 1 400 590.32521 A 190.32521 190.32521 0 0 1 220.43631 463.09172 " /><path
       id="circle8"
       style="fill:#ffd42a;stroke:#000000;stroke-width:6"
       d="M 513.993,399.99997 A 113.99303,113.99303 0 0 1 399.99997,513.993 113.99303,113.99303 0 0 1 286.00694,399.99997 113.99303,113.99303 0 0 1 399.99997,286.00694 113.99303,113.99303 0 0 1 513.993,399.99997 Z" /><path
       id="circle9"
       style="fill:none;stroke:#000000;stroke-width:6;stroke-linecap:round;stroke-dasharray:none;stroke-dashoffset:0"
       d="M 537.68087 463.00153 A 151.41075 151.41075 0 0 1 520.33337 491.8972 " /><path
       id="path18"
       style="fill:none;stroke:#000000;stroke-width:6;stroke-linecap:round;stroke-dasharray:none;stroke-dashoffset:0"
       d="M 530.53239 323.27641 A 151.41075 151.41075 0 0 1 547.304 364.97505 " /><path
       id="path10"
       style="fill:none;stroke:#000000;stroke-width:6;stroke-linecap:round;stroke-dasharray:none;stroke-dashoffset:0"
       d="M 252.6961 364.97466 A 151.41075 151.41075 0 0 1 269.54786 323.14004 " /><path
       id="path16"
       style="fill:none;stroke:#000000;stroke-width:6;stroke-linecap:round;stroke-dasharray:none;stroke-dashoffset:0"
       d="M 279.66655 491.8971 A 151.41075 151.41075 0 0 1 262.31904 463.00134 " /><path
       id="path22"
       style="opacity:0.979284;fill:#bcd35f;stroke:#000000;stroke-width:7.55986;stroke-linecap:round"
       d="m 302.88683,462.5714 -116.32195,0.3659 14.489,-48.96577 -14.489,-48.96577 v 0 l 103.12121,-0.36589"
       sodipodi:nodetypes="cccccc" /><path
       id="path26"
       style="opacity:0.979284;fill:#bcd35f;stroke:#000000;stroke-width:7.55986;stroke-linecap:round"
       d="m 510.28547,365.00576 h 103.14965 l -14.489,48.96577 14.489,48.96577 H 496.74727"
       sodipodi:nodetypes="ccccc" /><text
       xml:space="preserve"
       style="font-style:normal;font-variant:normal;font-weight:normal;font-stretch:normal;font-size:91.4612px;line-height:0;font-family:Castellar;-inkscape-font-specification:'Castellar, Normal';font-variant-ligatures:normal;font-variant-caps:normal;font-variant-numeric:normal;font-variant-east-asian:normal;text-align:center;letter-spacing:7.14542px;writing-mode:lr-tb;direction:ltr;text-anchor:middle;opacity:1;fill:none;stroke:#000000;stroke-width:6;stroke-linecap:round;stroke-dasharray:none"
       x="626.55151"
       y="186.14622"
       id="text29"
       transform="scale(1.0235296,0.97701132)"><tspan
         sodipodi:role="line"
         id="tspan29"
         style="font-style:normal;font-variant:normal;font-weight:normal;font-stretch:normal;font-size:91.4612px;font-family:Castellar;-inkscape-font-specification:'Castellar, Normal';font-variant-ligatures:normal;font-variant-caps:normal;font-variant-numeric:normal;font-variant-east-asian:normal;letter-spacing:7.14542px;stroke-width:6"
         x="626.55151"
         y="186.14622" /></text><text
       xml:space="preserve"
       style="font-size:318.132px;line-height:0;font-family:'Imprint MT Shadow';-inkscape-font-specification:'Imprint MT Shadow, Normal';text-align:center;letter-spacing:3.96875px;writing-mode:lr-tb;direction:ltr;text-anchor:middle;fill:none;stroke:#000000;stroke-width:6.00001;stroke-linecap:round"
       x="253.20461"
       y="40.981091"
       id="text3"><tspan
         sodipodi:role="line"
         id="tspan1"
         style="stroke-width:6"
         x="253.20461"
         y="40.981091" /></text><text
       xml:space="preserve"
       style="font-style:normal;font-variant:normal;font-weight:normal;font-stretch:normal;font-size:141.458px;line-height:0;font-family:'French Script MT';-inkscape-font-specification:'French Script MT, Normal';font-variant-ligatures:normal;font-variant-caps:normal;font-variant-numeric:normal;font-variant-east-asian:normal;text-align:center;letter-spacing:2.2918px;writing-mode:lr-tb;direction:ltr;text-anchor:middle;fill:#1a1a1a;stroke:#000000;stroke-width:5.99999;stroke-linecap:round"
       x="625.22565"
       y="398.62201"
       id="text5"
       transform="scale(0.88696311,1.1274426)"><tspan
         sodipodi:role="line"
         id="tspan5"
         style="font-style:normal;font-variant:normal;font-weight:normal;font-stretch:normal;font-size:141.458px;font-family:'French Script MT';-inkscape-font-specification:'French Script MT, Normal';font-variant-ligatures:normal;font-variant-caps:normal;font-variant-numeric:normal;font-variant-east-asian:normal;fill:#1a1a1a;stroke-width:5.99999"
         x="626.37152"
         y="398.62201">25</tspan></text><text
       xml:space="preserve"
       style="font-style:normal;font-variant:normal;font-weight:normal;font-stretch:normal;font-size:138.257px;line-height:0;font-family:'French Script MT';-inkscape-font-specification:'French Script MT, Normal';font-variant-ligatures:normal;font-variant-caps:normal;font-variant-numeric:normal;font-variant-east-asian:normal;text-align:center;letter-spacing:2.23993px;writing-mode:lr-tb;direction:ltr;text-anchor:middle;fill:#1a1a1a;stroke:#000000;stroke-width:5.99998;stroke-linecap:round"
       x="288.32751"
       y="381.81183"
       id="text9"
       transform="scale(0.84824715,1.1789017)"><tspan
         sodipodi:role="line"
         id="tspan9"
         style="font-style:normal;font-variant:normal;font-weight:normal;font-stretch:normal;font-size:138.257px;font-family:'French Script MT';-inkscape-font-specification:'French Script MT, Normal';font-variant-ligatures:normal;font-variant-caps:normal;font-variant-numeric:normal;font-variant-east-asian:normal;stroke-width:5.99998;fill:#1a1a1a"
         x="289.44748"
         y="381.81183">20</tspan></text><circle
       style="fill:#cccccc;stroke:none;stroke-width:6.00001;stroke-linecap:round"
       id="path8"
       cx="400"
       cy="400"
       r="83.425797" /><circle
       style="fill:#008000;stroke:none;stroke-width:6.00001;stroke-linecap:round"
       id="path9"
       cx="400"
       cy="400"
       r="65.862465" /><path
       class="st0"
       d="m 355.90734,382.39064 44.09267,-31.26711 44.31823,31.26711 z m -2.09751,45.62634 h 6.82629 v -4.75885 h 0.99237 v -2.27044 h 2.89439 v -27.23746 h -5.91663 v -6.52556 h 82.77997 v 6.52556 h -5.90908 v 27.23746 h 2.89439 v 2.27044 h 0.99237 v 4.75885 h 6.82628 v 4.9844 h -92.38036 z m 24.50094,-4.75885 h 3.33797 v -2.27044 h 2.89441 v -27.23746 h -9.1268 v 27.23746 h 2.89441 z m 20.02025,0 h 3.34549 v -2.27044 h 2.88689 v -27.23746 h -9.12678 v 27.23746 h 2.89438 z m 20.02027,0 h 3.34546 v -2.27044 h 2.89441 v -27.23746 h -9.1343 v 27.23746 h 2.89441 z m -33.19919,-48.7538 14.91557,-11.4423 14.99828,11.4423 z"
       id="path1-4"
       style="fill:#f9f9f9;stroke-width:0.264583" /></g><style
     type="text/css"
     id="style1">.st0{fill-rule:evenodd;clip-rule:evenodd;}</style><style
     type="text/css"
     id="style1-2">.st0{fill-rule:evenodd;clip-rule:evenodd;}</style></svg>
