<?xml version="1.0" encoding="UTF-8" standalone="no"?>
<!-- Created with Inkscape (http://www.inkscape.org/) -->

<svg
   width="100"
   height="100"
   viewBox="0 0 400 400"
   version="1.1"
   id="svg1"
   sodipodi:docname="bank-logo-index-mobile.svg"
   inkscape:version="1.4 (86a8ad7, 2024-10-11)"
   xml:space="preserve"
   xmlns:inkscape="http://www.inkscape.org/namespaces/inkscape"
   xmlns:sodipodi="http://sodipodi.sourceforge.net/DTD/sodipodi-0.dtd"
   xmlns="http://www.w3.org/2000/svg"
   xmlns:svg="http://www.w3.org/2000/svg"><sodipodi:namedview
     id="namedview1"
     pagecolor="#ffffff"
     bordercolor="#000000"
     borderopacity="0.25"
     inkscape:showpageshadow="2"
     inkscape:pageopacity="0.0"
     inkscape:pagecheckerboard="0"
     inkscape:deskcolor="#d1d1d1"
     inkscape:document-units="mm"
     inkscape:zoom="8"
     inkscape:cx="45.3125"
     inkscape:cy="53.4375"
     inkscape:window-width="1920"
     inkscape:window-height="991"
     inkscape:window-x="-9"
     inkscape:window-y="-9"
     inkscape:window-maximized="1"
     inkscape:current-layer="layer1" /><defs
     id="defs1" /><g
     inkscape:label="Layer 1"
     inkscape:groupmode="layer"
     id="layer1"><path
       id="path2"
       style="fill:none;stroke-width:0.163197"
       d="M 197.95377,56.017964 A 146.54091,146.46596 0 0 0 51.412858,202.48391 146.54091,146.46596 0 0 0 197.95377,348.94987 146.54091,146.46596 0 0 0 344.49467,202.48391 146.54091,146.46596 0 0 0 197.95377,56.017964 Z" /><path
       id="path1"
       style="fill:none;stroke-width:0.527219"
       d="M 197.95377,302.27125 A 102.57126,100.63693 0 0 1 95.38251,201.63432 102.57126,100.63693 0 0 1 197.95377,100.9974 102.57126,100.63693 0 0 1 300.52502,201.63432 102.57126,100.63693 0 0 1 197.95377,302.27125 Z" /><path
       d="m 115.03428,125.03973 0.64907,-0.5604 q 3.31789,3.43977 8.05038,3.44176 4.65167,0.0226 8.09452,-2.95005 2.65268,-2.29034 3.02565,-5.2228 0.37295,-2.93245 -1.43101,-5.01967 -1.90146,-2.20004 -4.55825,-2.02406 -2.57597,0.15546 -8.43966,2.60775 -4.71685,1.95465 -6.95153,2.50498 -2.61056,0.6286 -4.99164,-0.0737 -2.49011,-0.65747 -4.22094,-2.66007 -1.92585,-2.22824 -2.28289,-5.66324 0.61209,1.39241 1.31905,2.21036 1.90146,2.20005 4.38391,2.96267 2.5594,0.79465 4.89544,0.30458 2.36041,-0.46188 7.05673,-2.49731 6.09327,-2.69979 9.7738,-2.77459 3.54712,-0.0581 6.05804,2.84704 2.46215,2.84878 2.31641,7.0134 -0.14958,4.2172 -4.46726,7.9451 -1.74965,1.51065 -5.41454,3.54211 -3.19668,1.77496 -4.57563,2.91629 l -0.39256,-0.055 q -0.3862,-0.50387 -1.04441,-1.26541 -0.78008,-0.90259 -2.58271,-2.64618 -1.77442,-1.76794 -2.57888,-2.69873 -1.04825,-1.21283 -1.69109,-2.18467 z m 9.73345,-28.99188 -0.59262,0.51166 q -2.85606,-3.24748 -6.78923,-2.60975 -3.85237,0.6172 -7.43632,3.7116 -2.85024,2.46091 -3.63629,5.25749 -0.81427,2.82095 0.64839,4.51329 1.56019,1.80516 3.92961,1.58178 2.499,-0.18751 8.32676,-2.51028 5.41984,-2.16758 7.86492,-2.70257 2.63108,-0.54781 5.40089,0.26221 2.81856,0.86643 4.81754,3.17929 3.04722,3.52571 2.18181,7.76992 -0.18629,-2.15408 -2.25839,-4.55156 -1.95023,-2.25645 -4.5058,-3.10368 -2.63638,-0.82672 -5.14691,-0.4815 -2.56311,0.34138 -7.3082,2.3204 -7.14392,2.9666 -9.9585,3.13106 -2.83895,0.13627 -5.25236,-2.6561 -2.77907,-3.21545 -1.76738,-7.29042 1.06044,-4.01856 5.82964,-8.13631 3.2453,-2.80201 8.90495,-5.71844 l 0.17064,0.19744 0.98281,1.02309 q 0.73133,0.84617 1.81164,1.98206 1.32792,1.36539 2.27865,2.46542 0.63383,0.73334 1.50375,1.8539 z m 28.68977,6.96664 -7.64421,-16.21847 2.53017,-1.19131 7.88259,16.72425 q 2.89239,6.13671 7.1768,4.11942 1.38316,-0.65125 2.006,-1.60374 l 0.34964,0.74182 q -1.05304,2.22625 -3.11089,3.19518 -1.8892,0.88953 -3.71148,0.3467 -1.93939,-0.52889 -2.94423,-1.78621 -1.0723,-1.22556 -2.53439,-4.32764 z m -5.02688,1.66647 -7.37404,-15.64527 2.53016,-1.19132 7.93028,16.82541 q 1.74815,3.709 3.23727,4.94431 1.48717,1.31863 3.47394,1.24839 l -1.04579,0.49241 q -2.73705,0.0526 -4.77597,-1.21215 -1.9893,-1.24701 -3.97585,-5.46178 z m -11.3505,-27.49294 6.83859,2.17742 -0.82468,2.44836 -6.78896,-2.15959 z m 1.54817,-4.84905 6.80487,2.19331 -0.79095,2.43247 -6.82271,-2.1437 z m 48.05679,27.79692 0.3617,0.71881 q -1.38805,1.74527 -3.49287,2.24285 -2.9758,0.7035 -4.93186,-1.24703 -1.94751,-1.91425 -3.22644,-7.31871 l -8.19722,-34.639372 q 2.16024,-0.587284 3.04175,-0.910576 1.06857,6.296808 1.71234,9.017168 l 5.75092,24.30196 q 1.05578,4.46141 1.65979,6.04215 0.61256,1.61703 1.97789,2.36668 1.34622,0.83077 3.30588,0.36751 1.05242,-0.24881 2.03812,-0.94144 z m -21.88183,-39.67723 8.18863,34.60308 q 1.16735,4.93294 2.07222,6.32765 0.91344,1.431 2.47151,2.67129 -2.1333,-0.10848 -3.52241,-1.12062 -1.37196,-0.93959 -2.25182,-2.87643 -0.79208,-1.72778 -1.89077,-6.37054 l -5.75093,-24.30197 q -0.7811,-3.30071 -1.30981,-4.40134 -0.59932,-1.23715 -1.85579,-2.01254 -1.25645,-0.77538 -2.95818,-0.6795 l -0.14592,-0.61662 q 1.125,-0.26595 3.49908,-0.59738 1.18702,-0.16572 3.45419,-0.62508 z m 30.60073,13.399 14.75821,25.75554 -1.50455,2.11575 -0.2606,-0.0151 -12.19154,-21.0523 q -2.10791,-3.594 -3.5217,-4.98246 -1.44886,-1.42783 -3.39832,-1.95122 l 0.0367,-0.63257 q 3.92692,0.56306 6.08189,0.76233 z m 26.89057,8.46171 -10.50751,15.03569 -13.55364,-23.3338 q 4.13244,0.23893 8.54918,0.0836 l -0.0367,0.63256 q -2.8045,0.69654 -2.90788,2.48264 -0.0604,1.04188 1.74056,4.13278 l 6.24499,10.85212 6.10987,-8.7564 q 1.9156,-2.764 2.01682,-4.51289 0.12927,-2.2326 -3.56201,-3.64073 l 0.0367,-0.63258 q 0.11169,0.007 2.03683,0.30445 2.107,0.38317 3.33555,0.4542 1.48917,0.0861 7.76952,0.001 l -0.0367,0.63258 q -1.93098,0.44838 -3.42323,1.70614 -1.49224,1.25777 -3.81243,4.5584 z m 12.61308,20.53615 -0.22643,0.14501 q -3.85589,-5.22858 -1.07259,-11.5786 1.0774,-2.45809 3.00225,-4.34164 1.92483,-1.88355 5.87993,-2.91883 l 0.0959,0.24548 q -3.78299,2.77901 -6.07248,8.00242 -2.37928,5.42826 -1.60664,10.44616 z m 28.67947,-0.50443 -3.04001,-1.33112 q 2.55267,-6.28826 0.75043,-10.53622 4.49675,4.69535 2.28958,11.86734 z m -19.76285,-11.66468 12.16005,5.32445 q 0.90661,-2.53285 0.30998,-5.07286 -0.66493,-2.56992 -3.46584,-3.79634 -2.49349,-1.09182 -4.96453,-0.0984 -2.47103,0.99332 -4.03966,3.64323 z m 14.46845,9.34643 -15.84904,-6.93974 q -0.81651,1.67709 -0.98112,2.05263 -1.94531,4.43819 -0.7023,8.19715 1.25799,3.72481 5.15194,5.42984 3.2108,1.4059 6.56992,0.80144 3.35913,-0.60446 6.14896,-2.88241 l 1.46876,0.64312 q -7.07801,7.60283 -15.89062,3.74409 -5.2944,-2.31823 -6.54751,-7.26168 -1.26809,-4.90931 1.18602,-10.50826 2.36431,-5.39411 6.5998,-7.81221 4.18639,-2.39892 8.42191,-0.54434 3.41574,1.49564 4.8894,5.19282 1.45447,3.64808 -0.46612,9.88755 z m 25.37952,3.35906 -17.74554,19.79037 q -4.13206,-3.60123 -5.82503,-4.61721 l 0.44799,-0.49961 q 2.9712,1.21 4.65524,0.61637 1.7616,-0.62426 4.574,-3.76075 l 6.42124,-7.16117 q 2.66309,-2.96994 3.03038,-4.94326 0.36441,-2.02595 -1.23398,-4.20849 l 0.4231,-0.47184 q 0.71156,0.93767 5.2526,5.25559 z m -15.74606,21.58143 17.74555,-19.79036 q 0.94132,0.79314 2.49543,1.68474 -1.13729,0.93324 -3.55724,3.52037 6.25099,-1.10742 7.50066,0.0126 0.72205,0.64677 1.94423,3.19301 1.0469,2.2391 1.65786,2.78637 0.80534,0.7214 2.82551,0.47891 0.158,-0.008 0.21064,-0.0112 0.0775,-0.0307 0.49884,-0.0538 l 0.36495,0.87746 q -4.02097,1.80366 -6.13153,-0.0868 -0.72205,-0.64678 -1.98352,-3.42842 -0.51245,-1.15975 -0.95679,-1.55775 -1.33298,-1.19403 -4.37569,-0.81643 0.92114,0.42471 1.42102,0.87247 0.77758,0.69653 2.01417,3.50593 0.92717,1.98169 1.59367,2.57872 0.44433,0.39801 1.16532,0.54334 -2.92874,0.52973 -4.20619,-0.61456 -0.58318,-0.52239 -1.34374,-2.35482 -1.06997,-2.66015 -1.81978,-3.3318 -0.7498,-0.67164 -2.22138,-0.53836 l -7.56613,8.43797 q -2.53862,2.83117 -2.79195,4.95661 -0.25333,2.12546 1.52504,4.21896 l -0.44799,0.49961 q -2.95052,-3.24353 -5.56096,-5.58187 z"
       id="text1"
       style="font-size:95.0903px;font-family:'Colonna MT';-inkscape-font-specification:'Colonna MT, Normal';text-align:center;letter-spacing:0.140409px;text-anchor:middle;fill:#999999;stroke-width:0.933513"
       aria-label="Silver" /><path
       d="m 135.71276,330.5534 q 5.13869,-0.90316 8.6475,-5.63535 3.76444,-5.07692 3.07807,-10.44046 4.3541,6.57521 0.0552,12.37293 -2.11458,2.85185 -5.42625,3.84599 -3.31166,0.99413 -6.35451,-0.14311 z m 11.58452,-18.89916 q 3.77164,-1.09038 6.32773,-4.53767 2.02163,-2.72651 2.55894,-5.67856 0.55243,-3.03795 -0.33222,-4.85846 2.61616,2.95743 2.79079,6.19407 0.15141,3.26799 -1.68432,5.74377 -1.62661,2.19373 -4.44695,3.11485 -2.77385,0.85842 -5.21397,0.0221 z m -6.08584,-26.84152 -24.49204,33.03134 q -2.79761,-1.92658 -6.86341,-4.50124 l 0.41826,-0.5641 q 4.82675,1.87597 10.31075,-5.52004 l 12.1066,-16.32765 q 4.83334,-6.51851 1.79586,-10.8076 l 0.41826,-0.5641 q 3.02856,2.72883 6.30572,5.25339 z m -4.63739,23.02547 -3.13551,-2.32253 -4.18271,5.64101 q -4.39183,5.92308 -4.26813,8.44229 0.47002,1.65904 2.66488,3.28481 3.66855,2.71736 6.81644,1.74757 3.08517,-1.01624 5.19975,-3.86809 1.69633,-2.28775 1.93265,-4.63736 0.22821,-2.40418 -0.78886,-4.17712 -1.13437,-1.81128 -4.23851,-4.11058 z m 3.18502,-10.84676 -4.67068,6.29915 2.41433,1.78834 q 3.0101,2.22964 5.8489,1.80774 2.83879,-0.42192 5.11605,-3.49314 2.34695,-3.16525 1.82264,-6.12684 -0.54754,-2.93024 -2.99324,-4.74182 -1.34827,-0.99869 -2.65148,-0.94442 -1.8192,1.27424 -4.88652,5.41099 z m -20.71939,22.57132 24.49204,-33.03135 5.64055,3.59546 q 3.9821,2.94961 4.498,7.16731 0.46128,4.22578 -2.39689,8.0805 -3.57853,4.8262 -9.36024,3.84508 5.63407,6.55228 0.24303,13.82293 -2.71875,3.66666 -6.98984,4.7755 -4.30244,1.08562 -9.31925,-2.63044 -1.84995,-1.3703 -3.8508,-3.19223 -1.82783,-1.59665 -2.9566,-2.43276 z m 45.18974,9.6747 q -3.14152,2.38241 -4.04389,5.93643 -1.06554,4.19677 1.20349,7.62956 -2.17312,-1.11459 -3.49987,-3.34254 -1.41199,-2.20934 -0.70162,-5.00717 1.23833,-4.87732 7.04189,-5.21628 z m 20.7044,20.4232 -7.14778,-2.29586 4.98215,-19.6227 q 0.75836,-2.98689 0.54612,-4.52974 -0.27829,-1.59983 -1.60788,-3.02364 3.12784,1.47748 3.86853,3.4763 0.7311,2.03663 -0.41126,6.53586 l -2.96624,11.68289 q -0.75836,2.98687 -0.25253,4.48345 0.468,1.48699 3.16168,2.61289 z m -11.64695,-6.77723 2.50548,-9.86806 q -1.20994,-0.46786 -2.07997,-0.68854 -2.98841,-0.75797 -5.11362,0.63469 -2.13481,1.43045 -2.73958,3.81239 -0.54717,2.1551 0.46847,4.02245 1.03429,1.95257 3.07701,2.47067 1.81574,0.46054 3.88221,-0.3836 z m 3.03344,-11.94754 1.01756,-4.00773 q 0.69116,-2.72222 -0.0126,-4.55062 -0.75086,-1.80018 -4.00406,-2.62531 -5.06896,-1.28568 -9.51868,1.65028 l -0.71533,-1.14726 q 2.00442,-2.02695 5.42424,-2.80954 3.40062,-0.70697 6.65383,0.11812 7.07385,1.79419 5.11553,9.50717 l -4.99174,19.66051 q -1.75929,-0.36574 -3.02795,-0.28509 l 0.62226,-1.97508 q -2.40018,1.52414 -5.01032,0.8621 -2.98842,-0.75797 -4.39813,-3.61062 -1.44754,-2.86224 -0.69877,-5.81132 0.86395,-3.40277 3.97497,-5.18929 3.03537,-1.8057 7.08296,-0.77908 1.28615,0.32622 2.48591,0.99272 z m 55.19444,15.27628 -2.67155,-18.84725 q -0.55291,-3.90076 -1.34023,-5.56213 -0.72679,-1.51234 -2.87268,-2.46916 2.65498,-0.17898 4.46919,1.21879 1.81969,1.43639 2.65182,7.30683 l 1.27553,8.9988 q 0.47081,3.32144 1.0543,4.65709 0.56128,1.45699 1.98973,2.35783 1.39528,0.94493 3.13927,1.01314 l 0.0986,0.69519 q -1.29157,0.0646 -4.29431,0.29289 -2.95863,0.26137 -3.4996,0.33798 z m -28.47907,-24.05709 3.90328,27.53707 q -3.95266,0.75667 -6.85108,1.44288 l -0.0986,-0.6952 q 1.65673,-0.82554 2.60247,-2.49593 0.94572,-1.67038 0.13554,-7.38634 l -1.34671,-9.50087 q -0.54744,-3.86214 -1.69896,-5.59013 -1.17374,-1.60663 -4.10951,-2.01826 l -0.093,-0.65655 q 1.849,-0.0254 7.55662,-0.63667 z m 6.6468,27.14857 -3.90328,-27.53706 q 2.03703,-0.36723 3.06392,-0.63085 l 0.0197,2.08525 q 4.48525,-3.11711 8.61985,-3.70257 2.66625,-0.37755 4.7458,0.66747 2.04637,1.08911 2.75095,2.72278 0.71004,1.6723 1.26297,5.57308 l 2.5675,18.11343 q -1.57334,0.30158 -3.05845,0.66947 -0.41381,-4.86599 -0.68753,-6.79705 l -1.74635,-12.32023 q -0.5365,-3.7849 -1.83743,-5.17655 -1.34505,-1.4248 -4.24313,-1.01442 -3.0913,0.43773 -8.02382,3.73636 l 2.22809,15.71891 q 0.87593,6.17942 5.58886,6.61517 l 0.0986,0.69519 q -4.70264,0.19313 -7.44616,0.58162 z m 75.99623,-30.40406 0.37283,0.59508 q -4.47406,2.33998 -6.00396,3.20546 l -23.73431,-6.13206 2.04328,-5.19086 q 1.19289,-3.09382 0.19866,-4.6807 -1.07707,-1.71912 -3.3393,-0.9936 l -0.35212,-0.56201 q 1.63747,-0.84077 2.69193,-1.36266 l 3.98594,-2.31062 q 1.22384,-0.76597 3.61343,-2.53771 2.47644,-1.78007 2.90645,-2.0492 l 0.35212,0.56203 q -3.11295,2.45458 -6.38187,11.12795 l -2.29488,6.0387 15.01602,3.90267 q 7.34047,1.94113 10.92578,0.38753 z m -24.68349,15.72502 -25.04177,-39.96968 q 1.09154,-0.68316 2.70798,-1.92499 2.94618,5.65793 4.91391,8.79864 l 10.81207,17.25737 22.55094,5.86019 -1.12462,0.70388 q -1.09155,0.68316 -2.02573,1.54399 -2.04433,-0.8376 -4.84975,-1.56701 l -12.50027,-3.26809 2.94122,4.69453 q 1.67774,2.67787 3.55668,3.61898 1.84586,0.9618 4.38509,0.0169 l 0.37283,0.59508 q -4.11023,2.11226 -6.69858,3.64022 z m -33.83656,-34.97147 6.51246,-3.56976 25.04179,39.96967 q -2.64617,1.65618 -6.03608,4.33015 L 252.304,339.7881 q 1.94255,-2.04423 1.70077,-4.19409 -0.24179,-2.14986 -2.6859,-6.05095 l -15.43105,-24.62978 q -1.69845,-2.71093 -2.58043,-3.67771 -0.94814,-0.92536 -2.50805,-1.28374 -1.59297,-0.33768 -3.28856,0.26333 z"
       id="text2"
       style="font-size:114.686px;font-family:'Colonna MT';-inkscape-font-specification:'Colonna MT, Normal';text-align:center;letter-spacing:15.47px;text-anchor:middle;fill:#00aa00;stroke-width:0.810032"
       aria-label="Bank" /><path
       id="path21"
       style="fill:none;stroke:#000000;stroke-width:6.00003"
       d="M 47.710424,174.32607 A 152.86182,152.78363 0 0 1 197.95377,49.700286 152.86182,152.78363 0 0 1 348.20842,174.38646" /><path
       id="path19"
       style="fill:none;stroke:#000000;stroke-width:6.00003"
       d="M 342.17235,253.13081 A 152.86182,152.78363 0 0 1 197.95377,355.26755 152.86182,152.78363 0 0 1 53.73519,253.13081" /><path
       id="circle8"
       style="fill:#ffd42a;stroke:#000000;stroke-width:6.00003"
       d="m 289.50852,202.48389 a 91.554777,91.507946 0 0 1 -91.55478,91.50795 91.554777,91.507946 0 0 1 -91.55478,-91.50795 91.554777,91.507946 0 0 1 91.55478,-91.50794 91.554777,91.507946 0 0 1 91.55478,91.50794 z" /><path
       id="circle9"
       style="fill:none;stroke:#000000;stroke-width:6.00003;stroke-linecap:round;stroke-dasharray:none;stroke-dashoffset:0"
       d="m 308.5337,253.05842 a 121.60724,121.54503 0 0 1 -13.93284,23.19601" /><path
       id="path18"
       style="fill:none;stroke:#000000;stroke-width:6.00003;stroke-linecap:round;stroke-dasharray:none;stroke-dashoffset:0"
       d="m 302.79231,140.89403 a 121.60724,121.54503 0 0 1 13.47031,33.47359" /><path
       id="path10"
       style="fill:none;stroke:#000000;stroke-width:6.00003;stroke-linecap:round;stroke-dasharray:none;stroke-dashoffset:0"
       d="M 79.64498,174.36731 A 121.60724,121.54503 0 0 1 93.17967,140.78456" /><path
       id="path16"
       style="fill:none;stroke:#000000;stroke-width:6.00003;stroke-linecap:round;stroke-dasharray:none;stroke-dashoffset:0"
       d="M 101.3066,276.25435 A 121.60724,121.54503 0 0 1 87.37376,253.05827" /><path
       id="path22"
       style="opacity:0.979284;fill:#bcd35f;stroke:#000000;stroke-width:7.55985;stroke-linecap:round"
       d="m 119.95624,252.71313 -93.425277,0.29373 11.637002,-39.3073 -11.637002,-39.30728 v 0 l 82.822947,-0.29372"
       sodipodi:nodetypes="cccccc" /><path
       id="path26"
       style="opacity:0.979284;fill:#bcd35f;stroke:#000000;stroke-width:7.55985;stroke-linecap:round"
       d="m 286.53078,174.39228 h 82.84579 l -11.63701,39.30728 11.63701,39.3073 h -93.71915"
       sodipodi:nodetypes="ccccc" /><text
       xml:space="preserve"
       style="font-style:normal;font-variant:normal;font-weight:normal;font-stretch:normal;font-size:91.4612px;line-height:0;font-family:Castellar;-inkscape-font-specification:'Castellar, Normal';font-variant-ligatures:normal;font-variant-caps:normal;font-variant-numeric:normal;font-variant-east-asian:normal;text-align:center;letter-spacing:7.14542px;writing-mode:lr-tb;direction:ltr;text-anchor:middle;opacity:1;fill:none;stroke:#000000;stroke-width:6;stroke-linecap:round;stroke-dasharray:none"
       x="626.55151"
       y="186.14622"
       id="text29"
       transform="scale(1.0235296,0.97701132)"><tspan
         sodipodi:role="line"
         id="tspan29"
         style="font-style:normal;font-variant:normal;font-weight:normal;font-stretch:normal;font-size:91.4612px;font-family:Castellar;-inkscape-font-specification:'Castellar, Normal';font-variant-ligatures:normal;font-variant-caps:normal;font-variant-numeric:normal;font-variant-east-asian:normal;letter-spacing:7.14542px;stroke-width:6"
         x="626.55151"
         y="186.14622" /></text><text
       xml:space="preserve"
       style="font-size:318.132px;line-height:0;font-family:'Imprint MT Shadow';-inkscape-font-specification:'Imprint MT Shadow, Normal';text-align:center;letter-spacing:3.96875px;writing-mode:lr-tb;direction:ltr;text-anchor:middle;fill:none;stroke:#000000;stroke-width:6.00001;stroke-linecap:round"
       x="253.20461"
       y="40.981091"
       id="text3"><tspan
         sodipodi:role="line"
         id="tspan1"
         style="stroke-width:6"
         x="253.20461"
         y="40.981091" /></text><text
       xml:space="preserve"
       style="font-style:normal;font-variant:normal;font-weight:normal;font-stretch:normal;font-size:65.7174px;line-height:0;font-family:'French Script MT';-inkscape-font-specification:'French Script MT, Normal';font-variant-ligatures:normal;font-variant-caps:normal;font-variant-numeric:normal;font-variant-east-asian:normal;text-align:center;letter-spacing:1.06471px;writing-mode:lr-tb;direction:ltr;text-anchor:middle;fill:#000000;stroke:none;stroke-width:5.99999;stroke-linecap:round"
       x="82.005135"
       y="210.61266"
       id="text9"
       transform="scale(0.89776342,1.1138792)"><tspan
         sodipodi:role="line"
         id="tspan9"
         style="font-style:normal;font-variant:normal;font-weight:normal;font-stretch:normal;font-size:65.7174px;font-family:'French Script MT';-inkscape-font-specification:'French Script MT, Normal';font-variant-ligatures:normal;font-variant-caps:normal;font-variant-numeric:normal;font-variant-east-asian:normal;fill:#000000;stroke:none;stroke-width:5.99999"
         x="82.537491"
         y="210.61266">20</tspan></text><ellipse
       style="fill:#cccccc;stroke:none;stroke-width:6.00003;stroke-linecap:round"
       id="path8"
       cx="197.95375"
       cy="202.48392"
       rx="67.004364"
       ry="66.970093" /><ellipse
       style="fill:#008000;stroke:none;stroke-width:6.00003;stroke-linecap:round"
       id="path9"
       cx="197.95375"
       cy="202.48392"
       rx="52.898174"
       ry="52.87112" /><path
       class="st0"
       d="m 162.54025,188.34799 35.41353,-25.09968 35.59467,25.09968 z m -1.68463,36.62657 h 5.4826 v -3.82017 h 0.79705 v -1.82259 h 2.32465 v -21.86488 h -4.752 v -5.2384 h 66.48566 v 5.2384 h -4.74596 v 21.86488 h 2.32467 v 1.82259 h 0.79703 v 3.82017 h 5.48261 v 4.00123 h -74.19632 z m 19.67819,-3.82017 h 2.68094 v -1.82259 h 2.32467 v -21.86488 h -7.33029 v 21.86488 h 2.32468 z m 16.0795,0 h 2.68697 v -1.82259 h 2.31863 v -21.86488 h -7.33028 v 21.86488 h 2.32466 z m 16.0795,0 h 2.68695 v -1.82259 h 2.32467 v -21.86488 h -7.33631 v 21.86488 h 2.32468 z m -26.66431,-39.13713 11.97961,-9.18531 12.04604,9.18531 z"
       id="path1-4"
       style="fill:#f9f9f9;stroke-width:0.264584" /><text
       xml:space="preserve"
       style="font-style:normal;font-variant:normal;font-weight:normal;font-stretch:normal;font-size:65.7174px;line-height:0;font-family:'French Script MT';-inkscape-font-specification:'French Script MT, Normal';font-variant-ligatures:normal;font-variant-caps:normal;font-variant-numeric:normal;font-variant-east-asian:normal;text-align:center;letter-spacing:1.06471px;writing-mode:lr-tb;direction:ltr;text-anchor:middle;fill:#000000;stroke:none;stroke-width:5.99999;stroke-linecap:round"
       x="357.63022"
       y="211.54428"
       id="text9-7"
       transform="scale(0.89776342,1.1138792)"><tspan
         sodipodi:role="line"
         id="tspan9-6"
         style="font-style:normal;font-variant:normal;font-weight:normal;font-stretch:normal;font-size:65.7174px;font-family:'French Script MT';-inkscape-font-specification:'French Script MT, Normal';font-variant-ligatures:normal;font-variant-caps:normal;font-variant-numeric:normal;font-variant-east-asian:normal;fill:#000000;stroke:none;stroke-width:5.99999"
         x="358.16257"
         y="211.54428">20</tspan></text></g><style
     type="text/css"
     id="style1">.st0{fill-rule:evenodd;clip-rule:evenodd;}</style><style
     type="text/css"
     id="style1-2">.st0{fill-rule:evenodd;clip-rule:evenodd;}</style></svg>
