<?xml version="1.0" encoding="UTF-8" standalone="no"?>
<!-- Created with Inkscape (http://www.inkscape.org/) -->

<svg
   width="80"
   height="80"
   viewBox="0 0 320 320"
   version="1.1"
   id="svg1"
   sodipodi:docname="mobile-logo.svg"
   inkscape:version="1.4 (86a8ad7, 2024-10-11)"
   xml:space="preserve"
   xmlns:inkscape="http://www.inkscape.org/namespaces/inkscape"
   xmlns:sodipodi="http://sodipodi.sourceforge.net/DTD/sodipodi-0.dtd"
   xmlns="http://www.w3.org/2000/svg"
   xmlns:svg="http://www.w3.org/2000/svg"><sodipodi:namedview
     id="namedview1"
     pagecolor="#ffffff"
     bordercolor="#000000"
     borderopacity="0.25"
     inkscape:showpageshadow="2"
     inkscape:pageopacity="0.0"
     inkscape:pagecheckerboard="0"
     inkscape:deskcolor="#d1d1d1"
     inkscape:document-units="mm"
     inkscape:zoom="4"
     inkscape:cx="33.875"
     inkscape:cy="80.625"
     inkscape:window-width="1920"
     inkscape:window-height="991"
     inkscape:window-x="-9"
     inkscape:window-y="-9"
     inkscape:window-maximized="1"
     inkscape:current-layer="layer1" /><defs
     id="defs1" /><g
     inkscape:label="Layer 1"
     inkscape:groupmode="layer"
     id="layer1"><path
       id="path2"
       style="fill:none;stroke-width:0.163197"
       d="m 164.31467,69.69839 a 84.016616,83.785535 0 0 0 -84.01662,83.78552 84.016616,83.785535 0 0 0 84.01662,83.78554 84.016616,83.785535 0 0 0 84.01661,-83.78554 84.016616,83.785535 0 0 0 -84.01661,-83.78552 z" /><path
       id="path1"
       style="fill:none;stroke-width:0.527219"
       d="m 164.31467,210.56704 a 58.807402,57.569137 0 0 1 -58.8074,-57.56913 58.807402,57.569137 0 0 1 58.8074,-57.56914 58.807402,57.569137 0 0 1 58.8074,57.56914 58.807402,57.569137 0 0 1 -58.8074,57.56913 z" /><path
       d="m 116.77426,109.18214 0.37213,-0.32058 q 1.90226,1.96771 4.61555,1.96885 2.66695,0.0129 4.64084,-1.68757 1.52087,-1.31018 1.73471,-2.98769 0.21382,-1.6775 -0.82045,-2.87149 -1.09017,-1.25853 -2.61339,-1.15786 -1.47689,0.0889 -4.83873,1.49176 -2.70432,1.11815 -3.98553,1.43297 -1.49672,0.35959 -2.86187,-0.0422 -1.42766,-0.37611 -2.42,-1.52169 -1.10415,-1.27466 -1.30886,-3.23964 0.35093,0.79652 0.75626,1.26443 1.09017,1.25853 2.51343,1.69479 1.46739,0.45457 2.80672,0.17423 1.3533,-0.26422 4.04585,-1.42858 3.49347,-1.54441 5.60363,-1.5872 2.03368,-0.0332 3.47327,1.62864 1.41163,1.62964 1.32807,4.012 -0.0858,2.41245 -2.56122,4.54498 -1.00313,0.86417 -3.10433,2.02626 -1.83276,1.01536 -2.62336,1.66826 l -0.22506,-0.0315 q -0.22142,-0.28824 -0.5988,-0.72388 -0.44724,-0.51633 -1.48075,-1.51374 -1.01733,-1.01135 -1.47855,-1.54381 -0.601,-0.69379 -0.96956,-1.24973 z m 5.5805,-16.58474 -0.33977,0.29269 q -1.63747,-1.85771 -3.89248,-1.4929 -2.20869,0.35306 -4.26348,2.12321 -1.63414,1.40776 -2.0848,3.00754 -0.46685,1.61371 0.37174,2.58181 0.89451,1.03264 2.25297,0.90486 1.43276,-0.10727 4.774,-1.436 3.10737,-1.23996 4.50921,-1.546 1.50848,-0.31338 3.0965,0.14999 1.61597,0.49564 2.76205,1.81871 1.74707,2.01688 1.25091,4.44477 -0.10681,-1.23224 -1.29481,-2.60371 -1.11813,-1.2908 -2.58332,-1.77546 -1.51152,-0.47292 -2.95089,-0.27544 -1.46951,0.19529 -4.19003,1.32738 -4.09583,1.69704 -5.70952,1.79112 -1.62767,0.078 -3.01135,-1.51942 -1.59333,-1.83939 -1.0133,-4.17047 0.60799,-2.29881 3.34232,-4.65436 1.86064,-1.60288 5.1055,-3.27122 l 0.0978,0.11295 0.56347,0.58525 q 0.4193,0.48405 1.03868,1.13384 0.76133,0.78107 1.30642,1.41034 0.36339,0.4195 0.86215,1.06051 z m 16.44877,3.98525 -4.38267,-9.27774 1.45062,-0.68149 4.51935,9.56707 q 1.6583,3.51049 4.11469,2.35651 0.79301,-0.37255 1.1501,-0.91742 l 0.20046,0.42436 q -0.60374,1.27352 -1.78357,1.82779 -1.08314,0.50886 -2.12791,0.19833 -1.11192,-0.30255 -1.68802,-1.0218 -0.61479,-0.70107 -1.45305,-2.47561 z m -2.88207,0.9533 -4.22778,-8.94985 1.45062,-0.68149 4.54669,9.62494 q 1.00227,2.12173 1.85603,2.82838 0.85264,0.75432 1.99172,0.71414 l -0.59958,0.28168 q -1.56924,0.0301 -2.73822,-0.6934 -1.14053,-0.71335 -2.27948,-3.1244 z m -6.50761,-15.72728 3.92078,1.24559 -0.47281,1.40058 -3.89233,-1.23539 z m 0.88761,-2.77389 3.90146,1.25468 -0.45348,1.39149 -3.91168,-1.2263 z m 27.55251,15.90117 0.20737,0.41119 q -0.79581,0.99838 -2.00257,1.28302 -1.70612,0.40244 -2.8276,-0.71336 -1.11657,-1.09504 -1.84982,-4.18665 l -4.69973,-19.81538 q 1.23854,-0.33595 1.74394,-0.52089 0.61264,3.60207 0.98173,5.15825 l 3.29719,13.90188 q 0.60531,2.55214 0.95161,3.4564 0.3512,0.92502 1.13399,1.35386 0.77183,0.47524 1.89537,0.21023 0.60338,-0.14233 1.16852,-0.53855 z m -12.54556,-22.69727 4.69481,19.79461 q 0.66928,2.82188 1.18807,3.61972 0.5237,0.8186 1.41699,1.52811 -1.22309,-0.0621 -2.01951,-0.64105 -0.78659,-0.53749 -1.29104,-1.64546 -0.45412,-0.98837 -1.08404,-3.64425 L 144.9165,77.34847 q -0.44783,-1.88816 -0.75096,-2.51778 -0.34361,-0.7077 -1.06398,-1.15127 -0.72036,-0.44355 -1.69602,-0.3887 l -0.0837,-0.35274 q 0.645,-0.15213 2.00613,-0.34173 0.68056,-0.0948 1.9804,-0.35757 z m 17.54438,7.66486 8.46136,14.73341 -0.86261,1.21031 -0.14941,-0.009 -6.9898,-12.04293 q -1.20853,-2.05594 -2.0191,-2.8502 -0.83068,-0.81679 -1.94837,-1.11619 l 0.021,-0.36186 q 2.25143,0.32209 3.48695,0.43609 z m 15.41723,4.84051 -6.02429,8.60113 -7.77074,-13.34805 q 2.36926,0.13668 4.90152,0.0478 l -0.021,0.36186 q -1.60791,0.39845 -1.66718,1.42019 -0.0346,0.596 0.99792,2.36414 l 3.58045,6.20793 3.50299,-5.00907 q 1.09827,-1.58115 1.1563,-2.58159 0.0741,-1.27716 -2.04221,-2.08268 l 0.021,-0.36186 q 0.064,0.004 1.16778,0.17416 1.20801,0.21919 1.91238,0.25982 0.85379,0.0493 4.45451,5.7e-4 l -0.021,0.36187 q -1.10709,0.2565 -1.96264,0.97599 -0.85555,0.71951 -2.18579,2.60763 z m 7.23149,11.74766 -0.12982,0.0829 q -2.21071,-2.991 -0.61495,-6.62352 0.61771,-1.40614 1.72128,-2.48362 1.10357,-1.07748 3.37116,-1.66971 l 0.055,0.14043 q -2.16891,1.58972 -3.48155,4.57776 -1.36412,3.10523 -0.92114,5.9757 z m 16.44286,-0.28856 -1.74294,-0.76146 q 1.46353,-3.59719 0.43025,-6.02723 2.57813,2.68597 1.31269,6.78869 z m -11.33068,-6.67275 6.97175,3.04583 q 0.51979,-1.44891 0.17772,-2.90191 -0.38122,-1.47012 -1.98708,-2.17169 -1.42959,-0.62457 -2.84632,-0.0563 -1.41672,0.56823 -2.31607,2.0841 z m 8.29523,5.3466 -9.08676,-3.96986 q -0.46814,0.95937 -0.56251,1.1742 -1.11531,2.53886 -0.40265,4.68916 0.72124,2.13077 2.95377,3.10613 1.84085,0.80424 3.76675,0.45846 1.92589,-0.34578 3.52539,-1.64888 l 0.84209,0.3679 q -4.05805,4.34918 -9.1106,2.1418 -3.03545,-1.32614 -3.7539,-4.15403 -0.72704,-2.80836 0.67998,-6.01123 1.35554,-3.08569 3.78388,-4.46895 2.40019,-1.3723 4.82855,-0.31139 1.95835,0.85557 2.80325,2.97054 0.8339,2.08687 -0.26724,5.65615 z m 14.55089,1.92154 -10.17408,11.32104 q -2.36905,-2.06007 -3.33968,-2.64126 l 0.25685,-0.28581 q 1.70348,0.69218 2.66899,0.3526 1.00999,-0.35711 2.62243,-2.15133 l 3.6815,-4.09653 q 1.52683,-1.69895 1.73741,-2.82778 0.20893,-1.15894 -0.70748,-2.40746 l 0.24258,-0.26992 q 0.40796,0.5364 3.01148,3.00645 z m -9.02772,12.34561 10.1741,-11.32103 q 0.53969,0.45372 1.43071,0.96375 -0.65205,0.53386 -2.03948,2.01382 3.58389,-0.6335 4.30037,0.007 0.41397,0.36999 1.11469,1.82656 0.60022,1.28087 0.9505,1.59393 0.46173,0.41268 1.61996,0.27396 0.0906,-0.005 0.12076,-0.006 0.0444,-0.0176 0.286,-0.0308 l 0.20924,0.50195 q -2.30535,1.03178 -3.5154,-0.0496 -0.41398,-0.36999 -1.13722,-1.96122 -0.2938,-0.66343 -0.54856,-0.8911 -0.76424,-0.68305 -2.50872,-0.46704 0.52812,0.24295 0.81472,0.49909 0.44581,0.39845 1.15478,2.00556 0.53158,1.13362 0.91371,1.47515 0.25475,0.22768 0.66811,0.31082 -1.67914,0.30303 -2.41154,-0.35156 -0.33436,-0.29883 -0.77041,-1.34707 -0.61345,-1.52173 -1.04334,-1.90595 -0.42988,-0.38421 -1.27359,-0.30796 l -4.3379,4.82692 q -1.45548,1.61956 -1.60072,2.83542 -0.14524,1.21586 0.87436,2.41344 l -0.25685,0.28581 q -1.69163,-1.85546 -3.18828,-3.1931 z"
       id="text1"
       style="font-size:95.0903px;font-family:'Colonna MT';-inkscape-font-specification:'Colonna MT, Normal';text-align:center;letter-spacing:0.140409px;text-anchor:middle;fill:#999999;stroke-width:0.933513"
       aria-label="Silver" /><path
       d="m 128.6299,226.74579 q 2.94617,-0.51665 4.95789,-3.22369 2.15827,-2.90424 1.76475,-5.97245 2.49635,3.76134 0.0316,7.07791 -1.21235,1.6314 -3.11104,2.20009 -1.89868,0.56869 -3.64324,-0.0819 z m 6.64178,-10.81123 q 2.1624,-0.62375 3.62789,-2.59576 1.15906,-1.5597 1.46712,-3.24841 0.31673,-1.73785 -0.19047,-2.77927 1.49993,1.69179 1.60005,3.5433 0.0868,1.86945 -0.96568,3.28571 -0.93259,1.25492 -2.54958,1.78185 -1.59034,0.49105 -2.98933,0.0126 z m -3.48921,-15.35463 -14.04208,18.89551 q -1.60396,-1.1021 -3.93501,-2.57493 l 0.2398,-0.32269 q 2.76733,1.07314 5.91149,-3.15773 l 6.9411,-9.34019 q 2.77111,-3.7289 1.02962,-6.18247 l 0.23981,-0.32269 q 1.73637,1.56102 3.61527,3.00519 z m -2.65877,13.17167 -1.79769,-1.3286 -2.39808,3.22693 q -2.51798,3.38828 -2.44705,4.82939 0.26947,0.94905 1.52786,1.87907 2.10329,1.55446 3.90808,0.99969 1.76883,-0.58133 2.98119,-2.21273 0.97256,-1.3087 1.10805,-2.65279 0.13084,-1.37531 -0.45228,-2.38951 -0.65037,-1.03614 -2.43008,-2.35145 z m 1.82608,-6.20487 -2.67785,3.60342 1.38421,1.02302 q 1.72579,1.27546 3.35336,1.03411 1.62757,-0.24136 2.9332,-1.99824 1.34558,-1.81068 1.04498,-3.50485 -0.31393,-1.67624 -1.71613,-2.71255 -0.773,-0.5713 -1.52017,-0.54025 -1.04301,0.72893 -2.8016,3.09534 z m -11.8791,12.91188 14.04208,-18.89551 3.23391,2.05677 q 2.28306,1.68732 2.57885,4.10005 0.26446,2.41734 -1.37422,4.62243 -2.05169,2.76082 -5.36653,2.19957 3.2302,3.74822 0.13934,7.90738 -1.55874,2.0975 -4.0075,2.73181 -2.46672,0.62103 -5.34302,-1.50474 -1.06064,-0.78388 -2.20779,-1.82611 -1.04796,-0.91336 -1.69512,-1.39165 z m 25.90874,5.53439 q -1.80114,1.36285 -2.3185,3.39592 -0.6109,2.40075 0.69,4.36447 -1.24592,-0.63759 -2.00658,-1.91209 -0.80954,-1.26385 -0.40227,-2.86434 0.70998,-2.79006 4.03735,-2.98396 z m 11.87049,11.68305 -4.09805,-1.31334 2.85643,-11.22513 q 0.43479,-1.70864 0.31311,-2.59123 -0.15956,-0.91517 -0.92185,-1.72966 1.79329,0.84519 2.21795,1.98861 0.41916,1.16505 -0.23579,3.73882 l -1.70064,6.68317 q -0.43479,1.70864 -0.14478,2.56475 0.26832,0.85063 1.81269,1.4947 z m -6.67757,-3.8769 1.43648,-5.645 q -0.6937,-0.26764 -1.19252,-0.39388 -1.71335,-0.4336 -2.9318,0.36307 -1.22396,0.81829 -1.57069,2.18087 -0.31371,1.23282 0.26859,2.30103 0.59299,1.11697 1.76415,1.41334 1.04102,0.26346 2.22579,-0.21943 z m 1.73917,-6.83457 0.5834,-2.29261 q 0.39627,-1.55724 -0.007,-2.60317 -0.43049,-1.02979 -2.29566,-1.50181 -2.9062,-0.73547 -5.45736,0.94404 l -0.41013,-0.65628 q 1.1492,-1.15952 3.1099,-1.6072 1.94968,-0.40442 3.81485,0.0676 4.05567,1.02636 2.9329,5.43855 l -2.86193,11.24675 q -1.00865,-0.20922 -1.73602,-0.16308 l 0.35676,-1.12984 q -1.3761,0.87188 -2.87257,0.49316 -1.71336,-0.43359 -2.52159,-2.06545 -0.82992,-1.63734 -0.40063,-3.32435 0.49533,-1.94655 2.27898,-2.96852 1.74027,-1.03295 4.06089,-0.44567 0.73739,0.18661 1.42525,0.56788 z m 31.64475,8.73877 -1.53169,-10.78153 q -0.317,-2.23142 -0.76839,-3.18181 -0.41669,-0.86513 -1.647,-1.41247 1.52218,-0.10239 2.56233,0.6972 1.04328,0.82169 1.52037,4.17986 l 0.7313,5.14774 q 0.26993,1.90002 0.60447,2.66408 0.3218,0.83347 1.14077,1.34879 0.79996,0.54055 1.79985,0.57957 l 0.0565,0.39768 q -0.7405,0.037 -2.46207,0.16755 -1.69627,0.14951 -2.00643,0.19334 z m -16.32797,-13.76181 2.23788,15.75252 q -2.26619,0.43285 -3.92795,0.8254 l -0.0565,-0.39769 q 0.94986,-0.47225 1.49208,-1.42779 0.54222,-0.95554 0.0777,-4.22534 l -0.77211,-5.43495 q -0.31386,-2.20933 -0.97407,-3.19783 -0.67294,-0.91906 -2.35611,-1.15454 l -0.0533,-0.37557 q 1.06009,-0.0145 4.33245,-0.36421 z m 3.81083,15.53028 -2.23788,-15.75252 q 1.1679,-0.21007 1.75665,-0.36087 l 0.0113,1.19286 q 2.57154,-1.78313 4.94204,-2.11805 1.52864,-0.21597 2.72092,0.38183 1.17325,0.62302 1.5772,1.55756 0.40709,0.95663 0.72411,3.18807 l 1.47203,10.36175 q -0.90205,0.17251 -1.75351,0.38296 -0.23725,-2.78357 -0.39418,-3.88823 l -1.00124,-7.04776 q -0.3076,-2.16515 -1.05346,-2.96124 -0.77116,-0.81505 -2.43272,-0.58029 -1.77235,0.2504 -4.60032,2.13737 l 1.27744,8.99197 q 0.5022,3.53492 3.20427,3.78419 l 0.0565,0.39769 q -2.69617,0.11048 -4.26912,0.33271 z m 43.57108,-17.39258 0.21376,0.34042 q -2.56513,1.33858 -3.44227,1.83367 l -13.60764,-3.50783 1.17148,-2.96942 q 0.68392,-1.76981 0.1139,-2.67758 -0.61752,-0.98342 -1.91453,-0.56839 l -0.20188,-0.3215 q 0.93881,-0.48096 1.54337,-0.7795 l 2.28526,-1.32179 q 0.70167,-0.43817 2.0717,-1.45169 1.41982,-1.01828 1.66636,-1.17224 l 0.20188,0.32151 q -1.78475,1.40414 -3.65893,6.36572 l -1.31573,3.45442 8.60917,2.23252 q 4.20853,1.11042 6.2641,0.22168 z m -14.15184,8.99547 -14.35725,-22.86457 q 0.62581,-0.3908 1.55257,-1.10119 1.68914,3.23661 2.8173,5.03325 l 6.19891,9.87204 12.92918,3.35231 -0.64478,0.40265 q -0.62582,0.3908 -1.16142,0.88323 -1.17208,-0.47914 -2.78051,-0.8964 l -7.16681,-1.8695 1.68629,2.68549 q 0.96191,1.53187 2.03916,2.07023 1.05829,0.5502 2.51412,0.01 l 0.21375,0.34041 q -2.35652,1.20832 -3.84051,2.08238 z m -19.39959,-20.00536 3.73381,-2.04207 14.35726,22.86456 q -1.51713,0.94742 -3.46068,2.47706 l -0.21375,-0.34042 q 1.11372,-1.1694 0.9751,-2.39922 -0.13862,-1.22983 -1.53991,-3.46144 l -8.84712,-14.08941 q -0.97377,-1.55078 -1.47944,-2.10382 -0.5436,-0.52936 -1.43795,-0.73437 -0.9133,-0.19316 -1.88544,0.15064 z"
       id="text2"
       style="font-size:114.686px;font-family:'Colonna MT';-inkscape-font-specification:'Colonna MT, Normal';text-align:center;letter-spacing:15.47px;text-anchor:middle;fill:#00aa00;stroke-width:0.810029"
       aria-label="Bank" /><path
       id="path21"
       style="fill:none;stroke:#000000;stroke-width:6.00001"
       d="m 78.17533,137.37628 a 87.640597,87.399544 0 0 1 86.13934,-71.291908 87.640597,87.399544 0 0 1 86.14582,71.326458" /><path
       id="path19"
       style="fill:none;stroke:#000000;stroke-width:6.00001"
       d="m 246.99982,182.45636 a 87.640597,87.399544 0 0 1 -82.68515,58.4271 87.640597,87.399544 0 0 1 -82.68515,-58.4271" /><path
       id="circle8"
       style="fill:#ffd42a;stroke:#000000;stroke-width:6.00001"
       d="m 216.80595,153.4839 a 52.491298,52.346922 0 0 1 -52.4913,52.34693 52.491298,52.346922 0 0 1 -52.4913,-52.34693 52.491298,52.346922 0 0 1 52.4913,-52.34692 52.491298,52.346922 0 0 1 52.4913,52.34692 z" /><path
       id="circle9"
       style="fill:none;stroke:#000000;stroke-width:6.00001;stroke-linecap:round;stroke-dasharray:none;stroke-dashoffset:0"
       d="m 227.7137,182.41495 a 69.721342,69.529571 0 0 1 -7.98814,13.26923" /><path
       id="path18"
       style="fill:none;stroke:#000000;stroke-width:6.00001;stroke-linecap:round;stroke-dasharray:none;stroke-dashoffset:0"
       d="m 224.42198,118.25156 a 69.721342,69.529571 0 0 1 7.72296,19.14849" /><path
       id="path10"
       style="fill:none;stroke:#000000;stroke-width:6.00001;stroke-linecap:round;stroke-dasharray:none;stroke-dashoffset:0"
       d="m 96.48444,137.39987 a 69.721342,69.529571 0 0 1 7.75987,-19.21094" /><path
       id="path16"
       style="fill:none;stroke:#000000;stroke-width:6.00001;stroke-linecap:round;stroke-dasharray:none;stroke-dashoffset:0"
       d="m 108.90374,195.68413 a 69.721342,69.529571 0 0 1 -7.98815,-13.26926" /><path
       id="path22"
       style="opacity:0.979284;fill:#bcd35f;stroke:#000000;stroke-width:7.55985;stroke-linecap:round"
       d="m 119.59618,182.21743 -53.56372,0.16803 6.67187,-22.48566 -6.67187,-22.48564 v 0 l 47.48506,-0.16803"
       sodipodi:nodetypes="cccccc" /><path
       id="path26"
       style="opacity:0.979284;fill:#bcd35f;stroke:#000000;stroke-width:7.55985;stroke-linecap:round"
       d="m 215.09872,137.41416 h 47.49815 l -6.67187,22.48564 6.67187,22.48566 h -53.7322"
       sodipodi:nodetypes="ccccc" /><text
       xml:space="preserve"
       style="font-style:normal;font-variant:normal;font-weight:normal;font-stretch:normal;font-size:91.4612px;line-height:0;font-family:Castellar;-inkscape-font-specification:'Castellar, Normal';font-variant-ligatures:normal;font-variant-caps:normal;font-variant-numeric:normal;font-variant-east-asian:normal;text-align:center;letter-spacing:7.14542px;writing-mode:lr-tb;direction:ltr;text-anchor:middle;opacity:1;fill:none;stroke:#000000;stroke-width:6;stroke-linecap:round;stroke-dasharray:none"
       x="626.55151"
       y="186.14622"
       id="text29"
       transform="scale(1.0235296,0.97701132)"><tspan
         sodipodi:role="line"
         id="tspan29"
         style="font-style:normal;font-variant:normal;font-weight:normal;font-stretch:normal;font-size:91.4612px;font-family:Castellar;-inkscape-font-specification:'Castellar, Normal';font-variant-ligatures:normal;font-variant-caps:normal;font-variant-numeric:normal;font-variant-east-asian:normal;letter-spacing:7.14542px;stroke-width:6"
         x="626.55151"
         y="186.14622" /></text><text
       xml:space="preserve"
       style="font-size:318.132px;line-height:0;font-family:'Imprint MT Shadow';-inkscape-font-specification:'Imprint MT Shadow, Normal';text-align:center;letter-spacing:3.96875px;writing-mode:lr-tb;direction:ltr;text-anchor:middle;fill:none;stroke:#000000;stroke-width:6.00001;stroke-linecap:round"
       x="253.20461"
       y="40.981091"
       id="text3"><tspan
         sodipodi:role="line"
         id="tspan1"
         style="stroke-width:6"
         x="253.20461"
         y="40.981091" /></text><text
       xml:space="preserve"
       style="font-style:normal;font-variant:normal;font-weight:normal;font-stretch:normal;font-size:37.6357px;line-height:0;font-family:'French Script MT';-inkscape-font-specification:'French Script MT, Normal';font-variant-ligatures:normal;font-variant-caps:normal;font-variant-numeric:normal;font-variant-east-asian:normal;text-align:center;letter-spacing:0.609748px;writing-mode:lr-tb;direction:ltr;text-anchor:middle;fill:#000000;stroke:none;stroke-width:6.00001;stroke-linecap:round"
       x="103.50896"
       y="154.45749"
       id="text9"
       transform="scale(0.89877066,1.1126309)"><tspan
         sodipodi:role="line"
         id="tspan9"
         style="font-style:normal;font-variant:normal;font-weight:normal;font-stretch:normal;font-size:37.6357px;font-family:'French Script MT';-inkscape-font-specification:'French Script MT, Normal';font-variant-ligatures:normal;font-variant-caps:normal;font-variant-numeric:normal;font-variant-east-asian:normal;fill:#000000;stroke:none;stroke-width:6.00001"
         x="103.81383"
         y="154.45749">20</tspan></text><ellipse
       style="fill:#cccccc;stroke:none;stroke-width:6.00001;stroke-linecap:round"
       id="path8"
       cx="164.31467"
       cy="153.48392"
       rx="38.415756"
       ry="38.310097" /><ellipse
       style="fill:#008000;stroke:none;stroke-width:6.00001;stroke-linecap:round"
       id="path9"
       cx="164.31467"
       cy="153.48392"
       rx="30.328224"
       ry="30.24481" /><path
       class="st0"
       d="m 144.01096,145.39749 20.30372,-14.35822 20.40757,14.35822 z m -0.96585,20.95215 h 3.14335 v -2.18532 h 0.45697 v -1.04261 h 1.3328 v -12.50776 h -2.72447 v -2.99661 h 38.11836 v 2.99661 h -2.72101 v 12.50776 h 1.33281 v 1.04261 h 0.45696 v 2.18532 h 3.14336 v 2.28889 H 143.0451 Z m 11.28214,-2.18532 h 1.53707 v -1.04261 h 1.3328 v -12.50776 h -4.20269 v 12.50776 h 1.33282 z m 9.21889,0 h 1.54053 v -1.04261 h 1.32934 v -12.50776 h -4.20268 v 12.50776 h 1.3328 z m 9.2189,0 h 1.54051 v -1.04261 h 1.33281 v -12.50776 h -4.20614 v 12.50776 h 1.33281 z m -15.28751,-22.38831 6.8683,-5.25444 6.90638,5.25444 z"
       id="path1-4"
       style="fill:#f9f9f9;stroke-width:0.264584" /><text
       xml:space="preserve"
       style="font-style:normal;font-variant:normal;font-weight:normal;font-stretch:normal;font-size:37.6357px;line-height:0;font-family:'French Script MT';-inkscape-font-specification:'French Script MT, Normal';font-variant-ligatures:normal;font-variant-caps:normal;font-variant-numeric:normal;font-variant-east-asian:normal;text-align:center;letter-spacing:0.609748px;writing-mode:lr-tb;direction:ltr;text-anchor:middle;fill:#000000;stroke:none;stroke-width:6.00001;stroke-linecap:round"
       x="261.3566"
       y="154.99103"
       id="text9-7"
       transform="scale(0.89877066,1.1126309)"><tspan
         sodipodi:role="line"
         id="tspan9-6"
         style="font-style:normal;font-variant:normal;font-weight:normal;font-stretch:normal;font-size:37.6357px;font-family:'French Script MT';-inkscape-font-specification:'French Script MT, Normal';font-variant-ligatures:normal;font-variant-caps:normal;font-variant-numeric:normal;font-variant-east-asian:normal;fill:#000000;stroke:none;stroke-width:6.00001"
         x="261.66147"
         y="154.99103">20</tspan></text></g><style
     type="text/css"
     id="style1">.st0{fill-rule:evenodd;clip-rule:evenodd;}</style><style
     type="text/css"
     id="style1-2">.st0{fill-rule:evenodd;clip-rule:evenodd;}</style></svg>
